<svg width="480" height="480" viewBox="0 0 480 480" fill="none" xmlns="http://www.w3.org/2000/svg">
    <path fill-rule="evenodd" clip-rule="evenodd" d="M37 41.7391C37 18.6877 55.7218 0 78.8155 0H186.613C193.03 0 197.092 6.93903 193.872 12.4809C189.426 20.133 189.512 28.7899 189.601 37.8632C189.614 39.1474 189.627 40.4399 189.627 41.7391V438.261C189.627 439.559 189.614 440.85 189.601 442.131C189.513 451.213 189.428 459.868 193.87 467.515C197.09 473.059 193.032 480 186.613 480H78.8155C55.7218 480 37 461.312 37 438.261V41.7391ZM156.174 86.6087C156.174 67.0435 140.232 51.1304 120.631 51.1304C101.03 51.1304 85.0878 67.0435 85.0878 86.6087V129.391C85.0878 148.957 101.03 164.87 120.631 164.87C140.232 164.87 156.174 148.957 156.174 129.391V86.6087ZM101.814 86.6087C101.814 76.247 110.25 67.8261 120.631 67.8261C131.012 67.8261 139.448 76.247 139.448 86.6087V129.391C139.448 139.753 131.012 148.174 120.631 148.174C110.25 148.174 101.814 139.753 101.814 129.391V86.6087Z" fill="black" />
    <path d="M238.834 0C216.824 0 199 17.9021 199 39.9941V440C199 462.03 216.875 479.98 238.834 480H426.146C448.157 480 466 462.091 466 440V40C466 17.909 448.157 0 426.146 0H424.354C421.478 0 418.824 1.55531 417.411 4.07031L398.547 37.6406C393.649 46.4816 384.306 52 374.187 52H290.874C280.755 52 271.411 46.4817 266.49 37.5977L248.453 4.18945C247.059 1.60845 244.371 0 241.446 0H238.834ZM271.015 0C267.995 0 266.073 3.24025 267.512 5.90625L280.465 29.8984C282.533 33.6324 286.538 36 290.874 36H374.187C378.522 36 382.526 33.6323 384.637 29.8223L398.043 5.96484C399.541 3.29884 397.623 0 394.573 0H271.015ZM337.511 183.002C339.551 183.002 341.59 183.782 343.146 185.344C346.26 188.468 346.26 193.532 343.146 196.656L289.344 250.656C286.231 253.78 281.185 253.78 278.073 250.656C274.959 247.532 274.959 242.468 278.073 239.344L331.875 185.344C333.432 183.782 335.471 183.002 337.511 183.002ZM388.324 216C390.364 216 392.404 216.782 393.96 218.344C397.073 221.468 397.074 226.532 393.962 229.656L375.191 248.496C373.635 250.058 371.596 250.84 369.555 250.84C362.519 250.84 358.881 242.237 363.918 237.182L382.689 218.344C384.245 216.782 386.285 216 388.324 216ZM337.351 267.16C339.391 267.16 341.431 267.942 342.987 269.504C346.1 272.628 346.1 277.692 342.987 280.816L302.296 321.656C300.741 323.219 298.7 324 296.661 324C289.625 324 285.989 315.399 291.025 310.344L331.716 269.504C333.272 267.942 335.312 267.16 337.351 267.16ZM321.569 427H343.489C347.891 427 351.46 430.582 351.46 435C351.46 439.418 347.891 443 343.489 443H321.569C317.168 443 313.599 439.418 313.599 435C313.599 430.582 317.168 427 321.569 427Z" fill="black" />
</svg>