<svg xmlns="http://www.w3.org/2000/svg" viewBox="0 0 480 480">
    <path d="M 145.91016 0 C 123.90016 0.04 106 17.409766 106 38.759766 L 106 441.83984 C 106.34 462.92984 124.15 480 146 480 L 334 480 C 356.06 480 374 462.61023 374 441.24023 L 374 38.759766 C 374 17.389766 356.06 4.7369516e-15 334 0 L 332.40625 0 C 329.57225 0 326.94972 1.4994062 325.51172 3.9414062 L 306.18359 36.773438 C 301.26559 45.282438 291.91169 50.603516 281.80469 50.603516 L 198.19336 50.603516 C 188.08736 50.603516 178.7332 45.28375 173.7832 36.71875 C 173.7572 36.67275 155.8125 4.1367187 155.8125 4.1367188 C 154.4055 1.5837187 151.72359 0 148.80859 0 L 145.91016 0 z M 178.57617 0 C 175.53217 0 173.60422 3.2656406 175.07422 5.9316406 L 187.67188 28.773438 C 189.78287 32.371437 193.80736 34.603516 198.19336 34.603516 L 281.80469 34.603516 C 286.21569 34.603516 290.26133 32.347891 292.36133 28.712891 L 305.71484 6.0292969 C 307.28484 3.3632969 305.36258 0 302.26758 0 L 178.57617 0 z M 240 152 C 268.122 152 291 174.879 291 203 L 291 217 L 293 217 C 306.234 217 317 227.767 317 241 L 317 317 C 317 330.233 306.234 341 293 341 L 187 341 C 173.766 341 163 330.233 163 317 L 163 241 C 163 227.767 173.766 217 187 217 L 189 217 L 189 203 C 189 174.879 211.878 152 240 152 z M 240 168 C 220.701 168 205 183.701 205 203 L 205 217 L 275 217 L 275 203 C 275 183.701 259.299 168 240 168 z M 187 233 C 182.589 233 179 236.589 179 241 L 179 317 C 179 321.411 182.589 325 187 325 L 293 325 C 297.411 325 301 321.411 301 317 L 301 241 C 301 236.589 297.411 233 293 233 L 187 233 z M 240 265 C 244.418 265 248 268.582 248 273 L 248 291 C 248 295.418 244.418 299 240 299 C 235.582 299 232 295.418 232 291 L 232 273 C 232 268.582 235.582 265 240 265 z" />
</svg>