<svg xmlns="http://www.w3.org/2000/svg" viewBox="0 0 480 480">
    <path d="M 145.99023 0 C 123.89923 0 106.00977 17.902141 106.00977 39.994141 L 106.00977 440 C 106.00977 462.03 123.95023 479.98 145.99023 480 L 333.99023 480 C 356.08123 480 373.99023 462.091 373.99023 440 L 373.99023 40 C 373.99023 17.909 356.08123 0 333.99023 0 L 332.19141 0 C 329.30441 0 326.64066 1.5553125 325.22266 4.0703125 L 306.28906 37.640625 C 301.37306 46.481625 291.99584 52 281.83984 52 L 198.2207 52 C 188.0647 52 178.68705 46.481656 173.74805 37.597656 L 155.64453 4.1894531 C 154.24553 1.6084531 151.54733 0 148.61133 0 L 145.99023 0 z M 178.28906 0 C 175.25806 0 173.32944 3.24025 174.77344 5.90625 L 187.77344 29.898438 C 189.84944 33.632438 193.8697 36 198.2207 36 L 281.83984 36 C 286.19084 36 290.21013 33.632266 292.32812 29.822266 L 305.7832 5.9648438 C 307.2872 3.2988438 305.36178 0 302.30078 0 L 178.28906 0 z M 245.0293 183.00195 C 247.07655 183.00195 249.12355 183.78175 250.68555 185.34375 C 253.81055 188.46775 253.81055 193.53225 250.68555 196.65625 L 196.68555 250.65625 C 193.56155 253.78025 188.49705 253.78025 185.37305 250.65625 C 182.24805 247.53225 182.24805 242.46775 185.37305 239.34375 L 239.37305 185.34375 C 240.93505 183.78175 242.98205 183.00195 245.0293 183.00195 z M 296.0293 216 C 298.07655 216 300.12355 216.78175 301.68555 218.34375 C 304.81055 221.46775 304.8115 226.53225 301.6875 229.65625 L 282.84766 248.49609 C 281.28566 250.05809 279.23941 250.83984 277.19141 250.83984 C 270.12941 250.83984 266.4782 242.23664 271.5332 237.18164 L 290.37305 218.34375 C 291.93505 216.78175 293.98205 216 296.0293 216 z M 244.86914 267.16016 C 246.91639 267.16016 248.96339 267.94191 250.52539 269.50391 C 253.65039 272.62791 253.65039 277.69241 250.52539 280.81641 L 209.68555 321.65625 C 208.12455 323.21925 206.0763 324 204.0293 324 C 196.9673 324 193.31805 315.39875 198.37305 310.34375 L 239.21289 269.50391 C 240.77489 267.94191 242.82189 267.16016 244.86914 267.16016 z M 229.0293 427 L 251.0293 427 C 255.4473 427 259.0293 430.582 259.0293 435 C 259.0293 439.418 255.4473 443 251.0293 443 L 229.0293 443 C 224.6113 443 221.0293 439.418 221.0293 435 C 221.0293 430.582 224.6113 427 229.0293 427 z" />
</svg>